# xmcd
#
# Track frame offsets: 
#        150
#        2957
#        22850
#        34825
#        65755
#        68940
#        88205
#        102562
#        122822
#        146785
#        161152
#        174245
#
# Disc length: 2654 seconds
#
# Revision: 2
# Processed by: cddbd v1.4PL0 Copyright (c) Steve Scherf et al.
# Submitted via: ExactAudioCopy v0.90b4
#
DISCID=ab0a5c0c
DTITLE=Lotus - Lotus
DYEAR=1999
DGENRE=New Age
TTITLE0=A New Beginning
TTITLE1=You Are My Heaven
TTITLE2=Cicadas
TTITLE3=Air And Angels
TTITLE4=Village Rain
TTITLE5=Within Or Without You
TTITLE6=Unity
TTITLE7=The Greatest Gift Of All
TTITLE8=Never Knew What Love Meant
TTITLE9=Interzone
TTITLE10=Quiet
TTITLE11=Lullaby
EXTD=
EXTT0=
EXTT1=
EXTT2=
EXTT3=
EXTT4=
EXTT5=
EXTT6=
EXTT7=
EXTT8=
EXTT9=
EXTT10=
EXTT11=
PLAYORDER=
